<?xml version="1.0" encoding="UTF-8" standalone="no"?>
<svg
   xmlns:dc="http://purl.org/dc/elements/1.1/"
   xmlns:cc="http://creativecommons.org/ns#"
   xmlns:rdf="http://www.w3.org/1999/02/22-rdf-syntax-ns#"
   xmlns:svg="http://www.w3.org/2000/svg"
   xmlns="http://www.w3.org/2000/svg"
   xmlns:sodipodi="http://sodipodi.sourceforge.net/DTD/sodipodi-0.dtd"
   xmlns:inkscape="http://www.inkscape.org/namespaces/inkscape"
   viewBox="0 0 24 24"
   version="1.1"
   id="svg10"
   sodipodi:docname="docker.svg"
   inkscape:version="0.92.4 5da689c313, 2019-01-14">
  <metadata
     id="metadata16">
    <rdf:RDF>
      <cc:Work
         rdf:about="">
        <dc:format>image/svg+xml</dc:format>
        <dc:type
           rdf:resource="http://purl.org/dc/dcmitype/StillImage" />
        <dc:title></dc:title>
      </cc:Work>
    </rdf:RDF>
  </metadata>
  <defs
     id="defs14" />
  <sodipodi:namedview
     pagecolor="#404040"
     bordercolor="#666666"
     borderopacity="1"
     objecttolerance="10"
     gridtolerance="10"
     guidetolerance="10"
     inkscape:pageopacity="0"
     inkscape:pageshadow="2"
     inkscape:window-width="640"
     inkscape:window-height="480"
     id="namedview12"
     showgrid="true"
     inkscape:zoom="32.578065"
     inkscape:cx="12.663103"
     inkscape:cy="6.1697528"
     inkscape:current-layer="svg10">
    <inkscape:grid
       type="xygrid"
       id="grid7697"
       dotted="false" />
  </sodipodi:namedview>
  <path
     style="clip-rule:evenodd;fill:#ffffff;fill-opacity:1;fill-rule:evenodd"
     d="M 18.191406,7.5546875 17.957031,7.828125 c -0.472,0.546 -0.613781,1.454343 -0.550781,2.1523438 0.05,0.5130002 0.211344,1.0352652 0.527344,1.4472652 -0.24,0.144 -0.514813,0.257844 -0.757813,0.339844 -0.495,0.168 -1.032687,0.263672 -1.554687,0.263672 H 2.0703125 l -0.033203,0.335938 c 0,4.637999 2.8887187,6.292968 7.6367187,6.292968 5.2799999,0 7.6492189,-2.116078 9.6992189,-6.330078 1.295,0.07 2.619906,-0.316734 3.253906,-1.552734 l 0.160156,-0.314453 -0.304687,-0.179688 c -0.75,-0.4300008 -1.747656,-0.4902352 -2.597656,-0.240234 -0.103,-0.9040011 -0.701297,-1.6966721 -1.404297,-2.2636721 z M 7,14 c 0.5522847,0 1,0.447715 1,1 0,0.552285 -0.4477153,1 -1,1 -0.5522847,0 -1,-0.447715 -1,-1 0,-0.552285 0.4477153,-1 1,-1 z"
     id="path2"
     inkscape:connector-curvature="0"
     sodipodi:nodetypes="cccccsccscccccccsssss" />
  <path
     d="M12 9h2v2h-2zM9 9h2v2H9zM6 9h2v2H6zM3 9h2v2H3zm9-3h2v2h-2zM9 6h2v2H9zM6 6h2v2H6zm3-3h2v2H9z"
     clip-rule="evenodd"
     fill="#fff"
     fill-rule="evenodd"
     id="path8" />
  <circle
     style="color:#000000;clip-rule:nonzero;display:block;overflow:visible;visibility:visible;opacity:0.2;isolation:auto;mix-blend-mode:normal;color-interpolation:sRGB;color-interpolation-filters:linearRGB;solid-color:#000000;solid-opacity:1;vector-effect:none;fill:#f6f6f6;fill-opacity:1;fill-rule:nonzero;stroke:none;stroke-width:1;stroke-linecap:butt;stroke-linejoin:miter;stroke-miterlimit:4;stroke-dasharray:none;stroke-dashoffset:0;stroke-opacity:1;marker:none;marker-start:none;marker-mid:none;marker-end:none;paint-order:fill markers stroke;color-rendering:auto;image-rendering:auto;shape-rendering:auto;text-rendering:auto;enable-background:accumulate"
     id="path7714"
     cx="7"
     cy="15"
     r="1" />
</svg>
